{"title":"Trade 2007 DVDrip English/Spanish Klam","uid":5970472,"size":1893343909,"categoryP":"video","categoryS":"movies","magnet":"?xt=urn:btih:fe51a613bbbf671ae50de0df56d465fb9db01ab2&amp;dn=Trade+2007+DVDrip+English%2FSpanish+Klam&amp;tr=udp%3A%2F%2Ftracker.openbittorrent.com%3A80&amp;tr=udp%3A%2F%2Fopen.demonii.com%3A1337&amp;tr=udp%3A%2F%2Ftracker.coppersurfer.tk%3A6969&amp;tr=udp%3A%2F%2Fexodus.desync.com%3A6969","seeders":1,"leechers":0,"uploader":"Klambake","files":-1,"time":1290262476,"description":"[img]http://img191.imageshack.us/img191/3820/tradeql.jpg[/img]\n\nWith: Kevin Kline, Cesar Ramos and Alicja Bachleda-Curus\n\nAdriana is a 13-year-old girl from Mexico City whose kidnapping by sex traffickers sets in motion a desperate mission by her 17-year-old brother, Jorge, to save her. Trapped and terrified by an underground network of international thugs who earn millions exploiting their human cargo, Adriana's only friend and protector throughout her ordeal is Veronica, a young Polish woman tricked into the trade by the same criminal gang. As Jorge dodges immigration officers and incredible obstacles to track the girls' abductors, he meets Ray, a Texas cop whose own family loss to sex trafficking leads him to become an ally in the boy's quest. Fighting with courage and hard-tested faith, the characters of Trade negotiate their way through the unspeakable terrain of the sex trade &quot;tunnels&quot; between Mexico and the United States. From the barrios of Mexico City and the treacherous Rio Grande border, to a secret...\n\nGeneral:\n\nComplete name                    : Klambake\\Trade\\Trade.avi\nFormat                           : AVI\nFormat/Info                      : Audio Video Interleave\nFile size                        : 1.76 GiB\nDuration                         : 1h 54mn\nOverall bit rate                 : 2 203 Kbps\n\nVideo:\n\nFormat                           : MPEG-4 Visual\nFormat profile                   : Simple@L3\nFormat settings, BVOP            : No\nFormat settings, QPel            : No\nFormat settings, GMC             : No warppoints\nFormat settings, Matrix          : Default (H.263)\nCodec ID                         : XVID\nCodec ID/Hint                    : XviD\nDuration                         : 1h 54mn\nBit rate                         : 1 744 Kbps\nWidth                            : 720 pixels\nHeight                           : 576 pixels\nDisplay aspect ratio             : 5:4\nFrame rate                       : 25.000 fps\nStandard                         : PAL\nColor space                      : YUV\nChroma subsampling               : 4:2:0\nBit depth                        : 8 bits\nScan type                        : Progressive\nBits/(Pixel*Frame)               : 0.168\nStream size                      : 1.40 GiB (79%)\nWriting library                  : XviD 1.1.2 (UTC 2006-11-01)\n\nAudio:\n\nFormat                           : AC-3\nFormat/Info                      : Audio Coding 3\nMode extension                   : CM (complete main)\nCodec ID                         : 2000\nDuration                         : 1h 54mn\nBit rate mode                    : Constant\nBit rate                         : 448 Kbps\nChannel(s)                       : 6 channels\nChannel positions                : Front: L C R, Side: L R, LFE\nSampling rate                    : 48.0 KHz\nBit depth                        : 16 bits\nStream size                      : 367 MiB (20%)\nAlignment                        : Aligned on interleaves\nInterleave, duration             : 32 ms (0.80 video frame)","torrent":{"xt":"urn:btih:fe51a613bbbf671ae50de0df56d465fb9db01ab2","amp;dn":"Trade+2007+DVDrip+English%2FSpanish+Klam","amp;tr":["udp%3A%2F%2Ftracker.openbittorrent.com%3A80","udp%3A%2F%2Fopen.demonii.com%3A1337","udp%3A%2F%2Ftracker.coppersurfer.tk%3A6969","udp%3A%2F%2Fexodus.desync.com%3A6969"],"infoHash":"fe51a613bbbf671ae50de0df56d465fb9db01ab2","infoHashBuffer":{"type":"Buffer","data":[254,81,166,19,187,191,103,26,229,13,224,223,86,212,101,251,157,176,26,178]},"announce":[],"urlList":[]}}